<?xml version="1.0" encoding="UTF-8" standalone="no"?>
<!-- Created with Inkscape (http://www.inkscape.org/) -->

<svg
   xmlns:dc="http://purl.org/dc/elements/1.1/"
   xmlns:cc="http://creativecommons.org/ns#"
   xmlns:rdf="http://www.w3.org/1999/02/22-rdf-syntax-ns#"
   xmlns:svg="http://www.w3.org/2000/svg"
   xmlns="http://www.w3.org/2000/svg"
   xmlns:sodipodi="http://sodipodi.sourceforge.net/DTD/sodipodi-0.dtd"
   xmlns:inkscape="http://www.inkscape.org/namespaces/inkscape"
   width="50.400002cm"
   height="60.400002cm"
   viewBox="0 0 504.00002 604"
   version="1.1"
   id="svg8"
   inkscape:version="0.92.2 (5c3e80d, 2017-08-06)"
   sodipodi:docname="Colombia_road_sign_SI-07_(old).svg">
  <defs
     id="defs2" />
  <sodipodi:namedview
     id="base"
     pagecolor="#ffffff"
     bordercolor="#666666"
     borderopacity="1.0"
     inkscape:pageopacity="0.0"
     inkscape:pageshadow="2"
     inkscape:zoom="0.24748738"
     inkscape:cx="1331.527"
     inkscape:cy="1052.9893"
     inkscape:document-units="cm"
     inkscape:current-layer="layer1"
     showgrid="false"
     units="cm"
     inkscape:window-width="1920"
     inkscape:window-height="1057"
     inkscape:window-x="-8"
     inkscape:window-y="-8"
     inkscape:window-maximized="1"
     inkscape:snap-global="false"
     fit-margin-top="0"
     fit-margin-left="0"
     fit-margin-right="0"
     fit-margin-bottom="0" />
  <metadata
     id="metadata5">
    <rdf:RDF>
      <cc:Work
         rdf:about="">
        <dc:format>image/svg+xml</dc:format>
        <dc:type
           rdf:resource="http://purl.org/dc/dcmitype/StillImage" />
        <dc:title></dc:title>
      </cc:Work>
    </rdf:RDF>
  </metadata>
  <g
     inkscape:label="Layer 1"
     inkscape:groupmode="layer"
     id="layer1"
     transform="translate(-75,481.99998)">
    <rect
       style="opacity:1;fill:#007dc3;fill-opacity:1;fill-rule:nonzero;stroke:none;stroke-width:38.37693405;stroke-linejoin:round;stroke-miterlimit:4;stroke-dasharray:none;stroke-opacity:1"
       id="rect815"
       width="500"
       height="600"
       x="77"
       y="-479.99997"
       rx="75"
       ry="75" />
    <rect
       style="opacity:1;fill:#ffffff;fill-opacity:1;fill-rule:nonzero;stroke:none;stroke-width:25.1513195;stroke-linejoin:round;stroke-miterlimit:4;stroke-dasharray:none;stroke-opacity:1"
       id="rect817"
       width="350"
       height="350"
       x="152"
       y="-404.99997" />
    <path
       style="fill:#000000;fill-opacity:1;fill-rule:nonzero;stroke:none;stroke-width:1.31307268"
       d="m 266.3119,-377.2498 c -4.72197,0 -7.06782,4.75041 -7.06782,9.46831 0,4.72306 2.35563,7.06795 2.35563,7.06795 l -30.67128,24.78135 -1.17809,2.35612 -7.08843,45.95849 -8.25934,62.53895 c -0.11246,0.74967 -0.20204,1.49422 -0.26903,2.23472 v 1.07819 c -0.17089,2.33862 -0.18508,4.64678 0,6.91589 v 0.75494 c 0.0114,0.1206 0.0416,0.23645 0.0543,0.35857 h -2.3e-4 c 0.0678,0.64074 0.19598,1.26581 0.29055,1.89984 0.16801,1.14517 0.34625,2.29023 0.59719,3.41155 0.15891,0.7038 0.35993,1.39043 0.54618,2.0824 0.2825,1.03075 0.5738,2.05497 0.91924,3.06093 0.239,0.69836 0.50162,1.38126 0.76807,2.06799 0.3809,0.97169 0.78541,1.93296 1.2225,2.87965 0.30587,0.66046 0.61838,1.31692 0.95054,1.96703 0.48201,0.94265 0.99673,1.8618 1.52986,2.77579 0.3518,0.60402 0.69726,1.20803 1.07158,1.79624 0.59878,0.9454 1.23687,1.85285 1.88555,2.76017 0.36624,0.50947 0.7142,1.0307 1.09507,1.52692 0.81018,1.05694 1.66245,2.06807 2.53162,3.06338 0.26145,0.29822 0.50317,0.61856 0.76827,0.91147 1.15687,1.27238 2.35564,2.48691 3.59379,3.6425 0.29559,0.27696 0.60656,0.5213 0.90873,0.79033 0.95319,0.85891 1.91456,1.69516 2.9017,2.47766 0.4677,0.37029 0.94406,0.70522 1.41929,1.05844 0.84448,0.62883 1.68746,1.24618 2.54897,1.82112 0.53165,0.35225 1.06466,0.67899 1.59922,1.00713 0.82578,0.51223 1.65202,1.00078 2.4869,1.45639 0.55562,0.30591 1.10586,0.59074 1.66376,0.8704 0.82743,0.41372 1.65317,0.79838 2.48294,1.15557 0.55563,0.24156 1.10966,0.47675 1.66494,0.69073 0.84562,0.3284 1.6848,0.60526 2.52531,0.86797 0.52503,0.16526 1.05157,0.34273 1.57281,0.4806 0.90875,0.24425 1.80033,0.42006 2.69326,0.58412 0.4372,0.0795 0.88113,0.19071 1.31303,0.25368 1.31195,0.18494 2.60638,0.29394 3.86031,0.29394 h 1.87632 l 12.8276,-21.63929 h 101.39505 l 12.82706,21.63929 h 1.87632 c 1.25405,0 2.54863,-0.10836 3.86046,-0.29394 0.43202,-0.0633 0.87582,-0.1736 1.31329,-0.25368 0.89263,-0.16406 1.7846,-0.33987 2.69292,-0.58412 0.52124,-0.13787 1.0477,-0.31534 1.57306,-0.4806 0.84063,-0.26271 1.67985,-0.53957 2.52526,-0.86797 0.55538,-0.21398 1.10934,-0.44917 1.66467,-0.69073 0.82987,-0.35719 1.65582,-0.74185 2.48301,-1.15557 0.55832,-0.27966 1.10833,-0.56449 1.66365,-0.8704 0.83541,-0.45561 1.66114,-0.94416 2.48744,-1.45639 0.53406,-0.32814 1.06702,-0.65488 1.59922,-1.00713 0.861,-0.57494 1.70423,-1.19228 2.54844,-1.82112 0.4755,-0.35323 0.95195,-0.68815 1.41932,-1.05844 0.98748,-0.7825 1.94885,-1.61875 2.902,-2.47766 0.30186,-0.26903 0.6134,-0.51337 0.90846,-0.79033 1.23837,-1.15559 2.4372,-2.37012 3.59396,-3.6425 0.26525,-0.29291 0.50689,-0.61325 0.76813,-0.91147 0.86928,-0.99531 1.72186,-2.00644 2.53184,-3.06338 0.38058,-0.49622 0.72874,-1.01745 1.09527,-1.52692 0.6483,-0.90732 1.28654,-1.81477 1.88521,-2.76017 0.37418,-0.58821 0.71993,-1.19222 1.07177,-1.79624 0.53309,-0.91399 1.04778,-1.83314 1.52957,-2.77579 0.33218,-0.65011 0.64458,-1.30657 0.95051,-1.96703 0.43734,-0.94669 0.8419,-1.90796 1.22248,-2.87965 0.2667,-0.68673 0.5294,-1.36963 0.76816,-2.06799 0.34538,-1.00596 0.63668,-2.03018 0.91919,-3.06093 0.18637,-0.69197 0.38747,-1.3786 0.54639,-2.0824 0.25111,-1.12132 0.42895,-2.26638 0.59722,-3.41155 0.0951,-0.63403 0.22339,-1.2591 0.29035,-1.89984 v 0 c 0.015,-0.12212 0.0443,-0.23797 0.0542,-0.35857 v -0.75494 c 0.18468,-2.26911 0.17083,-4.57727 0,-6.91589 v -1.07819 c -0.0678,-0.7405 -0.15663,-1.48505 -0.26953,-2.23472 l -8.25882,-62.53895 -7.08859,-45.95849 -1.17802,-2.35612 -30.67158,-24.78135 c 0,0 2.35575,-2.34489 2.35575,-7.06795 0,-4.7179 -2.34613,-9.46831 -7.06786,-9.46831 z m -17.67015,62.47797 h 73.12323 v 44.85122 h -75.52274 z m 83.59428,0 h 73.123 l 2.39997,44.85122 h -75.52297 z"
       id="path1559"
       inkscape:connector-curvature="0"
       sodipodi:nodetypes="ssccccccccccccccccccccccccccccccccccccccsccccsccccccccccccccccccccccccccccccccccccccssscccccccccc" />
    <path
       style="fill:#000000;fill-opacity:1;fill-rule:nonzero;stroke:none;stroke-width:1.31186676"
       d="m 233.6333,-147.53979 -17.45191,63.481932 12.65258,1.307882 4.34393,-15.922136 h 187.64519 l 4.34386,15.922136 12.65237,-1.307882 -17.4518,-63.481932 -12.65253,0.43633 4.5808,17.03825 H 241.70506 l 4.5807,-17.03825 z m 5.02438,28.66875 h 176.68535 l 2.44005,8.99027 H 236.21786 Z"
       id="path1563"
       inkscape:connector-curvature="0"
       sodipodi:nodetypes="cccccccccccccccccc" />
    <circle
       style="opacity:1;fill:#ffffff;fill-opacity:1;stroke:none;stroke-width:20.07924271;stroke-linejoin:round;stroke-miterlimit:4;stroke-dasharray:none;stroke-opacity:1"
       id="path2282"
       cx="327.00061"
       cy="-225.85464"
       r="25.741417" />
    <circle
       cy="-225.85464"
       cx="327.00061"
       id="circle2284"
       style="opacity:1;fill:#000000;fill-opacity:1;stroke:none;stroke-width:12.59206581;stroke-linejoin:round;stroke-miterlimit:4;stroke-dasharray:none;stroke-opacity:1"
       r="16.142941" />
    <rect
       style="opacity:1;fill:#ffffff;fill-opacity:1;stroke:none;stroke-width:32.27406311;stroke-linejoin:round;stroke-miterlimit:4;stroke-dasharray:none;stroke-opacity:1"
       id="rect2296"
       width="83.768616"
       height="16.579201"
       x="285.11597"
       y="-359.79758"
       rx="4.799243"
       ry="8.2896013" />
  </g>
</svg>
