<?xml version="1.0" encoding="utf-8"?>
<!DOCTYPE svg PUBLIC "-//W3C//DTD SVG 1.1//EN"    "http://www.w3.org/Graphics/SVG/1.1/DTD/svg11.dtd">
<svg version="1.1" xmlns="http://www.w3.org/2000/svg" xmlns:xlink="http://www.w3.org/1999/xlink" 
    contentStyleType="text/css" enable-background="new 0 0 320.063 320.027" xml:space="preserve"
    width="320.063" preserveAspectRatio="xMidYMid meet" viewBox="0 0 320.063 320.027" height="320.027" overflow="visible">
	<style type="text/css"> <![CDATA[
	#background{fill:#E5171F !important;}
	.icon{fill:#FFFFFF !important;}
]]> </style>
    <rect id="background" x="0.3333334" width="319.6667" height="320.00003" y="-1.7881393E-7" style="stroke: none; fill: #000000"/>
    <path class="icon" fill="#FFFFFF" d="M 208.52777 127.94444 C 208.52777 175.91667 208.52777 175.91667 208.52777 175.91667 C 
        111.138885 175.91667 111.138885 175.91667 111.138885 175.91667 C 111.138885 127.94444 111.138885 127.94444 
        111.138885 127.94444 z M 127.86111 191.38893 C 137.08119 191.38893 144.55556 198.86328 144.55556 208.08337 C 
        144.55556 217.30347 137.08119 224.77782 127.86111 224.77782 C 118.641014 224.77782 111.16666 217.30347 111.16666 
        208.08337 C 111.16666 198.86328 118.641014 191.38893 127.86111 191.38893 z M 191.86105 191.38893 C 201.08113 
        191.38893 208.5555 198.86328 208.5555 208.08337 C 208.5555 217.30347 201.08113 224.77782 191.86105 224.77782 C 
        182.64096 224.77782 175.1666 217.30347 175.1666 208.08337 C 175.1666 198.86328 182.64096 191.38893 191.86105 
        191.38893 z M 157.84187 95.83256 C 130.84016 95.83256 104.23423 100.90819 88.04399 112.009 C 88.04399 157.34698 
        88.04399 202.68399 88.04399 248.021 C 111.24599 248.021 111.24599 248.021 111.24599 248.021 C 102.04698 257.515 
        90.92598 269.141 81.64298 278.423 C 78.56298 281.504 73.20198 284.30798 73.64298 288.025 C 104.04498 288.025 
        104.04498 288.025 104.04498 288.025 C 112.73099 275.109 119.82698 260.603 128.84698 248.021 C 192.053 248.021 
        192.053 248.021 192.053 248.021 C 200.23799 261.438 207.33699 275.94098 216.855 288.025 C 247.258 288.025 
        247.258 288.025 247.258 288.025 C 237.987 275.15698 218.924 260.888 209.65399 248.021 C 232.056 248.021 232.056 
        248.021 232.056 248.021 C 232.056 202.41699 232.056 156.813 232.056 111.209 C 214.3858 101.31318 185.90016 
        95.83256 157.84187 95.83256 z" fill-rule="evenodd"/>
    <path class="icon" fill="#FFFFFF" d="M 32.838 32.003 C 31.906 32.137 31.969 33.268 32.038002 34.401993 C 32.038002 118.94299 
        32.038002 203.484 32.038002 288.025 C 54.66664 288.025 54.66664 288.025 54.66664 288.025 C 54.66664 180.34756 
        54.66664 180.34756 54.66664 180.34756 C 54.197067 150.84142 56.381687 123.99811 68.04204 105.608986 C 85.38867 
        78.2526 122.39949 56.004204 160.45926 56.004204 C 160.58951 56.004204 160.71976 56.004463 160.85004 56.004986 C 
        187.11803 56.109985 209.53703 66.972984 225.65503 79.206985 C 241.09203 90.92198 256.44104 110.679985 261.65903 
        132.01099 C 265.35358 147.11736 265.18735 164.34422 264.66663 182.07431 C 264.66663 182.07431 264.66663 
        182.07431 264.66663 182.07431 C 264.66663 288.025 264.66663 288.025 264.66663 288.025 C 288.061 288.025 288.061 
        288.025 288.061 288.025 C 288.061 202.685 288.061 117.344 288.061 32.003 z" fill-rule="evenodd"/>
</svg>